<svg width="32" height="32" viewBox="0 0 32 32" fill="none" xmlns="http://www.w3.org/2000/svg">
<path opacity="0.4" d="M29.3332 16.0064C29.3332 23.3517 23.3486 29.3333 15.9998 29.3333C8.65106 29.3333 2.6665 23.3517 2.6665 16.0064C2.6665 8.64833 8.65106 2.66667 15.9998 2.66667C23.3486 2.66667 29.3332 8.64833 29.3332 16.0064Z" fill="#F2F3F6"/>
<path d="M21.3333 16.0065C21.3333 16.3435 21.2273 16.6817 21.0152 16.9526C20.9754 17.0058 20.7898 17.2248 20.6439 17.3674L20.5644 17.4451C19.4508 18.6258 16.6799 20.4015 15.2746 20.9704C15.2746 20.9834 14.4394 21.3217 14.0417 21.3333H13.9886C13.3788 21.3333 12.8087 20.9977 12.517 20.4533C12.358 20.1539 12.2121 19.2855 12.1989 19.2739C12.0795 18.4949 12 17.3026 12 15.9935C12 14.621 12.0795 13.3755 12.2254 12.6108C12.2254 12.5978 12.3712 11.8979 12.464 11.6646C12.6098 11.329 12.875 11.0425 13.2064 10.8611C13.4716 10.7328 13.75 10.6667 14.0417 10.6667C14.3466 10.6809 14.9167 10.874 15.142 10.9648C16.6269 11.535 19.464 13.4014 20.5511 14.5419C20.7367 14.7234 20.9356 14.945 20.9886 14.9955C21.214 15.2807 21.3333 15.6306 21.3333 16.0065Z" fill="#F2F3F6"/>
</svg>
